# AST/ASF file generated using VICON BodyLanguage
# -----------------------------------------------
:version 1.10
:name VICON
:units
  mass 1.0
  length 0.45
  angle deg
:documentation
   .ast/.asf automatically generated from VICON data using
   VICON BodyBuilder and BodyLanguage model FoxedUp or BRILLIANT.MOD
:root
   order TX TY TZ RX RY RZ
   axis XYZ
   position 0 0 0  
   orientation 0 0 0 
:bonedata
  begin
     id 1 
     name lhipjoint
     direction 0.734343 -0.627749 0.258209 
     length 2.5437 
     axis 0 0 0  XYZ
  end
  begin
     id 2 
     name lfemur
     direction 0.34202 -0.939693 0  
     length 6.7391  
     axis 0 0 20  XYZ
    dof rx ry rz
    limits (-160.0 20.0)
           (-70.0 70.0)
           (-60.0 70.0)
  end
  begin
     id 3 
     name ltibia
     direction 0.34202 -0.939693 0   
     length 7.21536   
     axis 0 0 20   XYZ
    dof rx
    limits (-10.0 170.0)
  end
  begin
     id 4 
     name lfoot
     direction 0.0489572 -0.134509 0.989702   
     length 1.61313   
     axis -90 7.62852e-016 20   XYZ
    dof rx rz
    limits (-45.0 90.0)
           (-70.0 20.0)
  end
  begin
     id 5 
     name ltoes
     direction 1.53451e-011 -4.21692e-011 1   
     length 0.823104   
     axis -90 7.62852e-016 20   XYZ
    dof rx
    limits (-90.0 20.0)
  end
  begin
     id 6 
     name rhipjoint
     direction -0.746398 -0.615468 0.253157   
     length 2.59446  
     axis 0 0 0  XYZ 
  end
  begin
     id 7 
     name rfemur
     direction -0.34202 -0.939693 0   
     length 6.7075   
     axis 0 0 -20   XYZ
    dof rx ry rz
    limits (-160.0 20.0)
           (-70.0 70.0)
           (-70.0 60.0)
  end
  begin
     id 8 
     name rtibia
     direction -0.34202 -0.939693 0   
     length 7.27262   
     axis 0 0 -20   XYZ
    dof rx
    limits (-10.0 170.0)
 end
 begin
     id 9 
     name rfoot
     direction -0.0455203 -0.125066 0.991104   
     length 1.91095  
     axis -90 -7.62852e-016 -20   XYZ
    dof rx rz
    limits (-45.0 90.0)
           (-20.0 70.0)
  end
  begin
     id 10 
     name rtoes
     direction -1.53601e-011 -4.21913e-011 1   
     length 0.969037   
     axis -90 -7.62852e-016 -20   XYZ
    dof rx
    limits (-90.0 20.0)
  end
  begin
     id 11 
     name lowerback
     direction 0.0181546 0.999122 -0.0377542   
     length 1.99916   
     axis 0 0 0   XYZ
    dof rx ry rz
    limits (-20.0 45.0)
           (-30.0 30.0)
           (-30.0 30.0)
  end
  begin
     id 12 
     name upperback
     direction 0.0203486 0.99589 0.0882534   
     length 1.951   
     axis 0 0 0   XYZ
    dof rx ry rz
    limits (-20.0 45.0)
           (-30.0 30.0)
           (-30.0 30.0)
  end
  begin
     id 13 
     name thorax
     direction 0.0131685 0.994241 0.106355   
     length 1.97461   
     axis 0 0 0   XYZ
    dof rx ry rz
    limits (-20.0 45.0)
           (-30.0 30.0)
           (-30.0 30.0)
  end
  begin
     id 14 
     name lowerneck
     direction -0.0281395 0.999325 0.023617   
     length 1.7959   
     axis 0 0 0   XYZ
    dof rx ry rz
    limits (-20.0 45.0)
           (-30.0 30.0)
           (-30.0 30.0)
  end
  begin
     id 15 
     name upperneck
     direction 0.0288721 0.991984 -0.123019   
     length 1.79917   
     axis 0 0 0   XYZ
    dof rx ry rz
    limits (-20.0 45.0)
           (-30.0 30.0)
           (-30.0 30.0)
  end
  begin
     id 16
     name head
     direction 0.0133797 0.998944 -0.0439492  
     length 1.80902  
     axis 0 0 0   XYZ
    dof rx ry rz
    limits (-20.0 45.0)
           (-30.0 30.0)
           (-30.0 30.0)
  end
  begin
     id 17 
     name lclavicle
     direction 0.919195 0.377107 0.113449  
     length 3.17815  
     axis 0 0 0   XYZ
    dof ry rz
    limits (-20.0 10.0)
           (0.0 20.0)
  end
  begin
     id 18 
     name lhumerus
     direction 1 -4.48959e-011 2.13129e-027   
     length 4.84137   
     axis 180 -30 -90   XYZ
    dof rx ry rz
    limits (-60.0 90.0)
           (-90.0 90.0)
           (-90.0 90.0)
  end
  begin
     id 19
     name lradius
     direction 1 -4.48957e-011 -6.30627e-028   
     length 3.2452   
     axis 180 -30 -90   XYZ
    dof rx
    limits (-10.0 170.0)
  end
  begin
     id 20
     name lwrist
     direction 1 -4.4901e-011 9.13299e-027   
     length 1.6226   
     axis -6.84618e-015 90 90   XYZ
    dof ry
    limits (-180.0 0.0)
 end
  begin
     id 21 
     name lhand
     direction 1 -4.48816e-011 1.82293e-026   
     length 0.521221   
     axis -1.16502e-014 90 90   XYZ
    dof rx rz
    limits (-90.0 90.0)
           (-45.0 45.0)
  end
  begin
     id 22 
     name lfingers
     direction 1 -4.49108e-011 3.65687e-026   
     length 0.420221   
     axis -2.33008e-014 90 90   XYZ
    dof rx
    limits (0.0 90.0)
  end
  begin
     id 23
     name lthumb
     direction 0.707107 -6.34943e-011 0.707107   
     length 0.603356   
     axis -90 45 5.69224e-014   XYZ
    dof rx rz
    limits (-45.0 45.0)
           (-45.0 45.0)
  end
  begin
     id 24 
     name rclavicle
     direction -0.90847 0.38596 0.160368   
     length 3.12973  
     axis 0 0 0   XYZ 
    dof ry rz
    limits (-10.0 20.0)
           (-20.0 0.0)
  end
  begin
     id 25 
     name rhumerus
     direction -1 -4.48974e-011 4.47268e-028  
     length 4.72284   
     axis 180 30 90   XYZ
    dof rx ry rz
    limits (-90.0 60.0)
           (-90.0 90.0)
           (-90.0 90.0)
  end
  begin
     id 26 
     name rradius
     direction -1 -4.48969e-011 3.43203e-027   
     length 3.23459   
     axis 180 30 90   XYZ
    dof rx
    limits (-10.0 170.0)
  end
  begin
     id 27 
     name rwrist
     direction -1 -4.48969e-011 9.12911e-027   
     length 1.6173   
     axis -6.84618e-015 -90 -90   XYZ
    dof ry
    limits (-180.0 0.0)
  end
  begin
     id 28
     name rhand
     direction -1 -4.49194e-011 1.83006e-026   
     length 0.307416   
     axis -1.16502e-014 -90 -90   XYZ
    dof rx rz
    limits (-90.0 90.0)
           (-45.0 45.0)
  end
  begin
     id 29
     name rfingers
     direction -1 -4.48423e-011 3.63103e-026   
     length 0.247847   
     axis -2.33008e-014 -90 -90   XYZ
    dof rx
    limits (0.0 90.0)
  end
  begin
     id 30
     name rthumb
     direction -0.707107 -6.34802e-011 0.707107   
     length 0.35586   
     axis -90 -45 -5.69224e-014   XYZ
    dof rx rz
    limits (-45.0 45.0)
           (-45.0 45.0)
  end
:hierarchy
  begin
    root lhipjoint rhipjoint lowerback
    lhipjoint lfemur
    lfemur ltibia
    ltibia lfoot
    lfoot ltoes
    rhipjoint rfemur
    rfemur rtibia
    rtibia rfoot
    rfoot rtoes
    lowerback upperback
    upperback thorax
    thorax lowerneck lclavicle rclavicle
    lowerneck upperneck
    upperneck head
    lclavicle lhumerus
    lhumerus lradius
    lradius lwrist
    lwrist lhand lthumb
    lhand lfingers
    rclavicle rhumerus
    rhumerus rradius
    rradius rwrist
    rwrist rhand rthumb
    rhand rfingers
  end

#!OML:ASF H:\Terrain\Patient Classification 1\Animal1\Tuesday\Animal1.ASF
:FULLY-SPECIFIED
:DEGREES
1067
root 20.2987 17.652 4.7114 -158.875 65.1775 -170.136
lowerback -7.04539 -1.29283 2.84942
upperback -2.28461 -1.85988 2.61793
thorax 1.58465 -0.877474 0.944919
lowerneck 3.80651 3.97615 -4.63533
upperneck 5.32299 5.20383 2.41192
head 0.824825 2.58501 1.49506
rclavicle -4.75841e-014 9.93923e-016
rhumerus -33.6886 -9.93486 -79.3126
rradius 11.8403
rwrist -11.5724
rhand -7.2819 16.2426
rfingers 7.12502
rthumb 18.5997 -12.8882
lclavicle -4.75841e-014 9.93923e-016
lhumerus -40.7961 23.3719 74.7965
lradius 11.648
lwrist -31.2609
lhand 47.6447 40.8317
lfingers 7.12502
lthumb 68.3396 41.2333
rfemur -22.6215 19.3758 18.2018
rtibia 27.4725
rfoot 0.581931 -36.8094
rtoes -18.8882
lfemur -7.35362 -2.21683 -29.6024
ltibia 14.2845
lfoot 5.57993 16.3507
ltoes 10.8544
1068
root 20.3492 17.6303 4.67262 -159.044 64.4295 -170.533
lowerback -7.16701 -1.22991 3.32042
upperback -2.32777 -1.80501 2.75959
thorax 1.59667 -0.845404 0.830299
lowerneck 3.78926 3.95368 -4.82635
upperneck 5.37828 5.16984 2.45381
head 0.840679 2.56543 1.54313
rclavicle -1.38404e-014 -1.19271e-015
rhumerus -33.6389 -8.49023 -80.0111
rradius 11.9843
rwrist -13.0945
rhand -7.7037 15.7343
rfingers 7.12502
rthumb 18.1939 -13.4348
lclavicle -1.38404e-014 -1.19271e-015
lhumerus -41.2862 25.861 73.3304
lradius 11.2218
lwrist -34.345
lhand 47.3144 39.577
lfingers 7.12502
lthumb 68.1032 40.5561
rfemur -23.1622 22.738 17.0399
rtibia 26.446
rfoot 1.51363 -39.6431
rtoes -13.8802
lfemur -8.86683 -1.61011 -29.4212
ltibia 16.9047
lfoot 5.19584 15.0041
ltoes 15.8946
1069
root 20.4013 17.5834 4.63995 -159.065 63.4807 -170.61
lowerback -7.20301 -1.22364 4.07517
upperback -2.25241 -1.84985 2.84798
thorax 1.67118 -0.863137 0.494944
lowerneck 3.26166 3.94982 -4.94187
upperneck 5.78226 5.18718 2.54943
head 1.05063 2.57253 1.61497
rclavicle -2.95692e-015 1.19271e-014
rhumerus -33.3072 -6.55638 -81.2979
rradius 12.0146
rwrist -15.1176
rhand -8.39131 15.1538
rfingers 7.12502
rthumb 17.5323 -14.0756
lclavicle -2.95692e-015 1.19271e-014
lhumerus -41.2139 27.178 72.5034
lradius 10.84
lwrist -36.0655
lhand 47.2817 38.9808
lfingers 7.12502
lthumb 68.0797 40.0165
rfemur -23.4628 28.2166 15.0447
rtibia 25.3194
rfoot -27.426 -36.6412
rtoes 33.7473
lfemur -10.5062 -1.0154 -29.0371
ltibia 19.9442
lfoot 4.62476 13.3247
ltoes 16.2153
1070
root 20.4621 17.5818 4.59449 -159.329 62.543 -170.77
lowerback -7.06731 -1.25929 4.68833
upperback -2.11762 -1.93645 2.95838
thorax 1.71518 -0.90214 0.261615
lowerneck 2.78573 3.95498 -4.81074
upperneck 5.99356 5.22826 2.31382
head 1.20544 2.59198 1.53408
rclavicle -2.45002e-014 -3.97569e-014
rhumerus -33.0162 -5.89854 -81.7829
rradius 11.9027
rwrist -15.8485
rhand -8.17752 15.4657
rfingers 7.12502
rthumb 17.738 -13.7453
lclavicle -2.45002e-014 -3.97569e-014
lhumerus -41.1195 28.2755 71.8521
lradius 10.5958
lwrist -37.4293
lhand 47.4431 38.28
lfingers 7.12502
lthumb 68.1956 39.0356
rfemur -22.8798 27.258 15.7148
rtibia 24.4486
rfoot -21.1963 -38.4766
rtoes 30.5255
lfemur -11.7926 0.474631 -28.9636
ltibia 22.7999
lfoot 6.02903 9.83266
ltoes -3.99857
1071
root 20.5113 17.5851 4.57349 -160.335 61.4316 -172.239
lowerback -7.03702 -1.36093 4.38146
upperback -2.26756 -2.03664 2.99702
thorax 1.55319 -0.954266 0.467131
lowerneck 2.84181 3.88399 -4.76913
upperneck 5.75243 5.13565 2.096
head 1.12942 2.5443 1.45174
rclavicle -1.36167e-014 -6.63941e-014
rhumerus -32.9169 -6.7064 -81.3439
rradius 11.6913
rwrist -15.3038
rhand -7.07451 16.1507
rfingers 7.12502
rthumb 18.7992 -12.9609
lclavicle -1.36167e-014 -6.63941e-014
lhumerus -40.7421 27.9796 72.2963
lradius 10.4432
lwrist -37.5065
lhand 47.3899 37.5802
lfingers 7.12502
lthumb 68.1575 38.4284
rfemur -22.6413 25.9155 15.7244
rtibia 23.989
rfoot -21.8445 -36.1123
rtoes 38.0692
lfemur -13.3497 1.42852 -29.2754
ltibia 25.3707
lfoot 6.13162 7.0556
ltoes -13.8825
1072
root 20.5786 17.5856 4.53293 -161.596 60.8082 -173.625
lowerback -7.06165 -1.24859 4.16541
upperback -2.27473 -1.87488 2.86641
thorax 1.56641 -0.875359 0.465154
lowerneck 3.0896 3.7745 -4.90995
upperneck 5.47468 4.97341 2.06348
head 1.00357 2.46174 1.45484
rclavicle 5.06901e-015 1.03368e-014
rhumerus -32.8216 -6.68007 -81.4796
rradius 11.4575
rwrist -15.6097
rhand -6.82105 15.9878
rfingers 7.12502
rthumb 19.0429 -13.1
lclavicle 5.06901e-015 1.03368e-014
lhumerus -40.4902 27.6309 72.5427
lradius 10.3184
lwrist -37.8487
lhand 47.5438 37.0503
lfingers 7.12502
lthumb 68.2676 37.6297
rfemur -22.1996 24.1907 15.9713
rtibia 24.3402
rfoot -16.1883 -36.0435
rtoes 35.3202
lfemur -14.0899 1.6178 -29.478
ltibia 27.2927
lfoot 5.0004 6.856
ltoes -2.92896
1073
root 20.6542 17.5939 4.48038 -162.119 60.2525 -174.074
lowerback -7.08922 -1.09497 4.3601
upperback -2.25633 -1.68354 2.86371
thorax 1.59852 -0.778065 0.368508
lowerneck 2.92239 3.74039 -4.95726
upperneck 5.76805 4.94847 1.9499
head 1.12692 2.44745 1.43695
rclavicle -9.88954e-015 -1.90833e-014
rhumerus -32.7225 -6.58471 -81.5407
rradius 11.1501
rwrist -15.5559
rhand -8.18229 15.4503
rfingers 7.12502
rthumb 17.7334 -13.761
lclavicle -9.88954e-015 -1.90833e-014
lhumerus -40.5702 27.8242 72.3367
lradius 10.271
lwrist -38.283
lhand 47.5352 36.9534
lfingers 7.12502
lthumb 68.2615 37.548
rfemur -21.8389 22.1661 16.7947
rtibia 25.0336
rfoot -11.8516 -37.3722
rtoes 28.8412
lfemur -14.6773 2.17328 -29.3494
ltibia 28.8059
lfoot 4.01493 6.34609
ltoes 5.92772
1074
root 20.729 17.5838 4.42799 -163.042 59.6493 -174.835
lowerback -6.96165 -0.998277 4.31966
upperback -2.19447 -1.54883 2.85018
thorax 1.59573 -0.711434 0.389658
lowerneck 2.65899 3.7649 -5.01275
upperneck 6.10259 5.00525 1.8895
head 1.27582 2.47353 1.44052
rclavicle -1.66979e-014 2.38542e-015
rhumerus -32.7179 -8.26083 -80.5009
rradius 10.7023
rwrist -12.9383
rhand -10.3647 15.792
rfingers 7.12502
rthumb 15.6324 -13.5964
lclavicle -1.66979e-014 2.38542e-015
lhumerus -40.5379 27.9019 72.3589
lradius 10.2683
lwrist -37.9445
lhand 47.609 37.0259
lfingers 7.12502
lthumb 68.3141 37.4907
rfemur -21.4431 20.5467 17.2389
rtibia 25.7491
rfoot -18.8384 -37.2162
rtoes 36.2539
lfemur -14.9602 2.99343 -29.589
ltibia 30.0041
lfoot 3.49445 5.59401
ltoes 2.35779
1075
root 20.7984 17.5355 4.38952 -164.154 58.9997 -175.911
lowerback -6.87457 -0.957622 4.0808
upperback -2.12338 -1.48165 2.74999
thorax 1.62659 -0.680196 0.42563
lowerneck 2.63598 3.76296 -5.14186
upperneck 5.91963 4.99939 1.84134
head 1.22037 2.46801 1.4443
rclavicle -1.11816e-014 -4.45278e-014
rhumerus -32.7421 -10.5183 -79.1547
rradius 10.1965
rwrist -9.39196
rhand -11.492 16.4921
rfingers 7.12502
rthumb 14.5464 -12.9779
lclavicle -1.11816e-014 -4.45278e-014
lhumerus -40.8314 28.8616 71.6336
lradius 10.3984
lwrist -38.3378
lhand 48.0956 36.6266
lfingers 7.12502
lthumb 68.6584 36.2188
rfemur -21.4275 20.1646 17.0354
rtibia 26.6851
rfoot -33.5223 -29.0783
rtoes 53.2078
lfemur -14.907 3.34187 -29.8934
ltibia 30.8513
lfoot 2.68663 6.30631
ltoes -0.550839
